<?xml version="1.0" encoding="iso-8859-1"?>
<!-- Generator: Adobe Illustrator 19.0.0, SVG Export Plug-In . SVG Version: 6.00 Build 0)  -->
<svg version="1.1" id="Capa_1" xmlns="http://www.w3.org/2000/svg" xmlns:xlink="http://www.w3.org/1999/xlink" x="0px" y="0px"
	 viewBox="0 0 512.001 512.001" style="enable-background:new 0 0 512.001 512.001;" xml:space="preserve">
<g>
	<g>
		<path d="M460.836,96.664l-77.039-82.816C375.609,5.047,364.02,0,352.002,0H111.445C87.5,0,68.019,19.482,68.019,43.426v255.962
			c-16.261,3.514-28.484,18.003-28.484,35.3v82.74c0,17.295,12.223,31.784,28.484,35.299v15.849
			c0,23.945,19.482,43.425,43.426,43.425H429.04c23.945,0,43.426-19.481,43.426-43.425V126.243
			C472.467,115.23,468.336,104.727,460.836,96.664z M379.386,53.18l43.61,46.88h-30.252c-7.365,0-13.358-5.992-13.358-13.358V53.18z
			 M75.655,423.527c-3.364,0-6.102-2.737-6.102-6.101v-82.74c0-3.364,2.737-6.102,6.102-6.102h238.409
			c3.364,0,6.102,2.737,6.102,6.102v82.74c0,3.363-2.737,6.101-6.102,6.101H75.655z M442.449,468.575
			c0,7.393-6.016,13.407-13.408,13.407H111.445c-7.393,0-13.408-6.015-13.408-13.407v-15.03h216.025
			c19.916,0,36.119-16.203,36.119-36.118v-82.74c0-19.916-16.203-36.119-36.119-36.119H98.037V43.426
			c0-7.393,6.016-13.408,13.408-13.408h237.923v56.684c0,23.917,19.458,43.376,43.376,43.376h49.705V468.575z"/>
	</g>
</g>
<g>
	<g>
		<path d="M161.624,342.584c-0.773-1.281-1.9-1.922-3.378-1.922H116.57c-1.48,0-2.606,0.641-3.376,1.922
			c-0.771,1.281-1.158,2.797-1.158,4.545c0,1.875,0.4,3.452,1.206,4.733c0.803,1.281,1.913,1.92,3.328,1.92h13.314v52.739
			c0,1.489,0.738,2.64,2.218,3.448c1.48,0.81,3.247,1.214,5.307,1.214c2.057,0,3.825-0.403,5.306-1.214
			c1.479-0.809,2.218-1.959,2.218-3.448v-52.739h13.314c1.414,0,2.522-0.639,3.328-1.92c0.803-1.281,1.206-2.858,1.206-4.733
			C162.782,345.381,162.395,343.865,161.624,342.584z"/>
	</g>
</g>
<g>
	<g>
		<path d="M218.828,401.632l-16.688-25.758l16.014-25.661c0.642-1.028,0.965-2.025,0.965-2.99c0-1.93-1.062-3.602-3.184-5.017
			c-2.122-1.414-4.311-2.122-6.561-2.122c-2.122,0-3.634,0.836-4.534,2.508l-12.831,22.381l-12.831-22.381
			c-0.901-1.672-2.411-2.508-4.534-2.508c-2.252,0-4.439,0.708-6.561,2.122c-2.122,1.415-3.184,3.087-3.184,5.017
			c0,0.965,0.321,1.962,0.965,2.99l16.015,25.661l-16.69,25.758c-0.578,0.965-0.867,1.866-0.867,2.701
			c0,1.93,1.109,3.651,3.328,5.161c2.219,1.513,4.453,2.267,6.705,2.267c1.736,0,2.926-0.515,3.569-1.543l14.084-23.925
			l14.084,23.925c0.579,1.028,1.769,1.543,3.569,1.543c2.251,0,4.486-0.754,6.705-2.267c2.219-1.51,3.328-3.231,3.328-5.161
			C219.695,403.499,219.406,402.597,218.828,401.632z"/>
	</g>
</g>
<g>
	<g>
		<path d="M270.829,342.584c-0.772-1.281-1.899-1.922-3.377-1.922h-41.677c-1.48,0-2.606,0.641-3.376,1.922
			c-0.771,1.281-1.158,2.797-1.158,4.545c0,1.875,0.4,3.452,1.206,4.733c0.803,1.281,1.913,1.92,3.328,1.92h13.314v52.739
			c0,1.489,0.738,2.64,2.218,3.448c1.48,0.81,3.247,1.214,5.307,1.214c2.057,0,3.825-0.403,5.306-1.214
			c1.479-0.809,2.218-1.959,2.218-3.448v-52.739h13.314c1.414,0,2.523-0.639,3.328-1.92c0.803-1.281,1.206-2.858,1.206-4.733
			C271.986,345.381,271.6,343.865,270.829,342.584z"/>
	</g>
</g>
<g>
</g>
<g>
</g>
<g>
</g>
<g>
</g>
<g>
</g>
<g>
</g>
<g>
</g>
<g>
</g>
<g>
</g>
<g>
</g>
<g>
</g>
<g>
</g>
<g>
</g>
<g>
</g>
<g>
</g>
</svg>
